<svg data-v-0dd9719b="" version="1.0" xmlns="http://www.w3.org/2000/svg" xmlns:xlink="http://www.w3.org/1999/xlink" width="100%" height="100%" viewBox="0 0 340.000000 250.000000" preserveAspectRatio="xMidYMid meet" color-interpolation-filters="sRGB" style="margin: auto;"> <rect data-v-0dd9719b="" x="0" y="0" width="100%" height="100%" fill="#ffffff" fill-opacity="0" class="background"></rect> <rect data-v-0dd9719b="" x="0" y="0" width="100%" height="100%" fill="url(#watermark)" fill-opacity="1" class="watermarklayer"></rect> <g data-v-0dd9719b="" fill="#b22166" class="basesvg" transform="translate(98.62999725341797,89.10665130615234)"><g fill-rule="" class="tp-name" transform="matrix(1,0,0,1,0,0)" opacity="1"><g transform="scale(1)"><g><g mask="url(#K0GGmyuHRqjQQs11Dhqo8)"><g stroke="#b22166" stroke-width="6" stroke-linecap="round" stroke-linejoin="round" paint-order="stroke" data-gra-attr="stroke"><path d="M38-18.25L38-18.25Q38-5.88 30.13-1.57L30.13-1.57 39.02 8.67 26.77 8.67 20.35 0.57 20.32 0.55 20.32 0.52 20.3 0.5Q11.73 0.5 7.16-4.31 2.59-9.11 2.59-18.3L2.59-18.3Q2.59-27.39 7.13-32.19 11.68-36.98 20.35-36.98L20.35-36.98Q29.04-36.98 33.52-32.22 38-27.47 38-18.25ZM12.95-18.25L12.95-18.25Q12.95-7.69 20.3-7.69L20.3-7.69Q24.03-7.69 25.84-10.26 27.64-12.82 27.64-18.25L27.64-18.25Q27.64-23.71 25.81-26.31 23.98-28.91 20.35-28.91L20.35-28.91Q12.95-28.91 12.95-18.25ZM60.69-36.41L70.53-36.41 70.53-14.49Q70.53-7.35 66.48-3.42 62.44 0.5 54.82 0.5L54.82 0.5Q47.37 0.5 43.37-3.31 39.38-7.12 39.38-14.27L39.38-14.27 39.38-36.41 49.26-36.41 49.26-15.04Q49.26-11.18 50.71-9.44 52.15-7.69 54.96-7.69L54.96-7.69Q57.98-7.69 59.34-9.43 60.69-11.16 60.69-15.09L60.69-15.09 60.69-36.41ZM83.06 0L73.17 0 73.17-36.41 83.06-36.41 83.06 0ZM102.14-28.86L102.14-28.86Q98.63-28.86 96.66-25.99 94.69-23.11 94.69-18.05L94.69-18.05Q94.69-7.55 102.69-7.55L102.69-7.55Q105.1-7.55 107.37-8.22 109.64-8.89 111.93-9.84L111.93-9.84 111.93-1.52Q107.37 0.5 101.62 0.5L101.62 0.5Q93.38 0.5 88.98-4.28 84.58-9.06 84.58-18.1L84.58-18.1Q84.58-23.76 86.71-28.04 88.84-32.32 92.84-34.63 96.84-36.93 102.24-36.93L102.24-36.93Q108.14-36.93 113.52-34.37L113.52-34.37 110.51-26.62Q108.49-27.57 106.47-28.21 104.46-28.86 102.14-28.86ZM133.85-20.1L145.13 0 134.02 0 126.82-13.92 123.91-12.18 123.91 0 114.02 0 114.02-36.41 123.91-36.41 123.91-20.59Q124.66-22.06 126.92-25.25L126.92-25.25 134.57-36.41 145.33-36.41 133.85-20.1Z" transform="translate(-2.5900001525878906, 36.97999954223633)"></path></g><g stroke="black" stroke-width="4" stroke-linecap="round" stroke-linejoin="round" paint-order="stroke" data-gra-ignore-stroke="true"><path d="M38-18.25L38-18.25Q38-5.88 30.13-1.57L30.13-1.57 39.02 8.67 26.77 8.67 20.35 0.57 20.32 0.55 20.32 0.52 20.3 0.5Q11.73 0.5 7.16-4.31 2.59-9.11 2.59-18.3L2.59-18.3Q2.59-27.39 7.13-32.19 11.68-36.98 20.35-36.98L20.35-36.98Q29.04-36.98 33.52-32.22 38-27.47 38-18.25ZM12.95-18.25L12.95-18.25Q12.95-7.69 20.3-7.69L20.3-7.69Q24.03-7.69 25.84-10.26 27.64-12.82 27.64-18.25L27.64-18.25Q27.64-23.71 25.81-26.31 23.98-28.91 20.35-28.91L20.35-28.91Q12.95-28.91 12.95-18.25ZM60.69-36.41L70.53-36.41 70.53-14.49Q70.53-7.35 66.48-3.42 62.44 0.5 54.82 0.5L54.82 0.5Q47.37 0.5 43.37-3.31 39.38-7.12 39.38-14.27L39.38-14.27 39.38-36.41 49.26-36.41 49.26-15.04Q49.26-11.18 50.71-9.44 52.15-7.69 54.96-7.69L54.96-7.69Q57.98-7.69 59.34-9.43 60.69-11.16 60.69-15.09L60.69-15.09 60.69-36.41ZM83.06 0L73.17 0 73.17-36.41 83.06-36.41 83.06 0ZM102.14-28.86L102.14-28.86Q98.63-28.86 96.66-25.99 94.69-23.11 94.69-18.05L94.69-18.05Q94.69-7.55 102.69-7.55L102.69-7.55Q105.1-7.55 107.37-8.22 109.64-8.89 111.93-9.84L111.93-9.84 111.93-1.52Q107.37 0.5 101.62 0.5L101.62 0.5Q93.38 0.5 88.98-4.28 84.58-9.06 84.58-18.1L84.58-18.1Q84.58-23.76 86.71-28.04 88.84-32.32 92.84-34.63 96.84-36.93 102.24-36.93L102.24-36.93Q108.14-36.93 113.52-34.37L113.52-34.37 110.51-26.62Q108.49-27.57 106.47-28.21 104.46-28.86 102.14-28.86ZM133.85-20.1L145.13 0 134.02 0 126.82-13.92 123.91-12.18 123.91 0 114.02 0 114.02-36.41 123.91-36.41 123.91-20.59Q124.66-22.06 126.92-25.25L126.92-25.25 134.57-36.41 145.33-36.41 133.85-20.1Z" transform="translate(-2.5900001525878906, 36.97999954223633)"></path></g><g><path d="M38-18.25L38-18.25Q38-5.88 30.13-1.57L30.13-1.57 39.02 8.67 26.77 8.67 20.35 0.57 20.32 0.55 20.32 0.52 20.3 0.5Q11.73 0.5 7.16-4.31 2.59-9.11 2.59-18.3L2.59-18.3Q2.59-27.39 7.13-32.19 11.68-36.98 20.35-36.98L20.35-36.98Q29.04-36.98 33.52-32.22 38-27.47 38-18.25ZM12.95-18.25L12.95-18.25Q12.95-7.69 20.3-7.69L20.3-7.69Q24.03-7.69 25.84-10.26 27.64-12.82 27.64-18.25L27.64-18.25Q27.64-23.71 25.81-26.31 23.98-28.91 20.35-28.91L20.35-28.91Q12.95-28.91 12.95-18.25ZM60.69-36.41L70.53-36.41 70.53-14.49Q70.53-7.35 66.48-3.42 62.44 0.5 54.82 0.5L54.82 0.5Q47.37 0.5 43.37-3.31 39.38-7.12 39.38-14.27L39.38-14.27 39.38-36.41 49.26-36.41 49.26-15.04Q49.26-11.18 50.71-9.44 52.15-7.69 54.96-7.69L54.96-7.69Q57.98-7.69 59.34-9.43 60.69-11.16 60.69-15.09L60.69-15.09 60.69-36.41ZM83.06 0L73.17 0 73.17-36.41 83.06-36.41 83.06 0ZM102.14-28.86L102.14-28.86Q98.63-28.86 96.66-25.99 94.69-23.11 94.69-18.05L94.69-18.05Q94.69-7.55 102.69-7.55L102.69-7.55Q105.1-7.55 107.37-8.22 109.64-8.89 111.93-9.84L111.93-9.84 111.93-1.52Q107.37 0.5 101.62 0.5L101.62 0.5Q93.38 0.5 88.98-4.28 84.58-9.06 84.58-18.1L84.58-18.1Q84.58-23.76 86.71-28.04 88.84-32.32 92.84-34.63 96.84-36.93 102.24-36.93L102.24-36.93Q108.14-36.93 113.52-34.37L113.52-34.37 110.51-26.62Q108.49-27.57 106.47-28.21 104.46-28.86 102.14-28.86ZM133.85-20.1L145.13 0 134.02 0 126.82-13.92 123.91-12.18 123.91 0 114.02 0 114.02-36.41 123.91-36.41 123.91-20.59Q124.66-22.06 126.92-25.25L126.92-25.25 134.57-36.41 145.33-36.41 133.85-20.1Z" transform="translate(-2.5900001525878906, 36.97999954223633)"></path></g></g><defs><mask id="K0GGmyuHRqjQQs11Dhqo8" maskUnits="userSpaceOnUse"><g><g stroke="white" stroke-width="6" stroke-linecap="round" stroke-linejoin="round" paint-order="stroke" fill-opacity="0"><path d="M38-18.25L38-18.25Q38-5.88 30.13-1.57L30.13-1.57 39.02 8.67 26.77 8.67 20.35 0.57 20.32 0.55 20.32 0.52 20.3 0.5Q11.73 0.5 7.16-4.31 2.59-9.11 2.59-18.3L2.59-18.3Q2.59-27.39 7.13-32.19 11.68-36.98 20.35-36.98L20.35-36.98Q29.04-36.98 33.52-32.22 38-27.47 38-18.25ZM12.95-18.25L12.95-18.25Q12.95-7.69 20.3-7.69L20.3-7.69Q24.03-7.69 25.84-10.26 27.64-12.82 27.64-18.25L27.64-18.25Q27.64-23.71 25.81-26.31 23.98-28.91 20.35-28.91L20.35-28.91Q12.95-28.91 12.95-18.25ZM60.69-36.41L70.53-36.41 70.53-14.49Q70.53-7.35 66.48-3.42 62.44 0.5 54.82 0.5L54.82 0.5Q47.37 0.5 43.37-3.31 39.38-7.12 39.38-14.27L39.38-14.27 39.38-36.41 49.26-36.41 49.26-15.04Q49.26-11.18 50.71-9.44 52.15-7.69 54.96-7.69L54.96-7.69Q57.98-7.69 59.34-9.43 60.69-11.16 60.69-15.09L60.69-15.09 60.69-36.41ZM83.06 0L73.17 0 73.17-36.41 83.06-36.41 83.06 0ZM102.14-28.86L102.14-28.86Q98.63-28.86 96.66-25.99 94.69-23.11 94.69-18.05L94.69-18.05Q94.69-7.55 102.69-7.55L102.69-7.55Q105.1-7.55 107.37-8.22 109.64-8.89 111.93-9.84L111.93-9.84 111.93-1.52Q107.37 0.5 101.62 0.5L101.62 0.5Q93.38 0.5 88.98-4.28 84.58-9.06 84.58-18.1L84.58-18.1Q84.58-23.76 86.71-28.04 88.84-32.32 92.84-34.63 96.84-36.93 102.24-36.93L102.24-36.93Q108.14-36.93 113.52-34.37L113.52-34.37 110.51-26.62Q108.49-27.57 106.47-28.21 104.46-28.86 102.14-28.86ZM133.85-20.1L145.13 0 134.02 0 126.82-13.92 123.91-12.18 123.91 0 114.02 0 114.02-36.41 123.91-36.41 123.91-20.59Q124.66-22.06 126.92-25.25L126.92-25.25 134.57-36.41 145.33-36.41 133.85-20.1Z" transform="translate(-2.5900001525878906, 36.97999954223633)"></path></g><g stroke="black" stroke-width="4" stroke-linecap="round" stroke-linejoin="round" paint-order="stroke" data-gra-ignore-stroke="true"><path d="M38-18.25L38-18.25Q38-5.88 30.13-1.57L30.13-1.57 39.02 8.67 26.77 8.67 20.35 0.57 20.32 0.55 20.32 0.52 20.3 0.5Q11.73 0.5 7.16-4.31 2.59-9.11 2.59-18.3L2.59-18.3Q2.59-27.39 7.13-32.19 11.68-36.98 20.35-36.98L20.35-36.98Q29.04-36.98 33.52-32.22 38-27.47 38-18.25ZM12.95-18.25L12.95-18.25Q12.95-7.69 20.3-7.69L20.3-7.69Q24.03-7.69 25.84-10.26 27.64-12.82 27.64-18.25L27.64-18.25Q27.64-23.71 25.81-26.31 23.98-28.91 20.35-28.91L20.35-28.91Q12.95-28.91 12.95-18.25ZM60.69-36.41L70.53-36.41 70.53-14.49Q70.53-7.35 66.48-3.42 62.44 0.5 54.82 0.5L54.82 0.5Q47.37 0.5 43.37-3.31 39.38-7.12 39.38-14.27L39.38-14.27 39.38-36.41 49.26-36.41 49.26-15.04Q49.26-11.18 50.71-9.44 52.15-7.69 54.96-7.69L54.96-7.69Q57.98-7.69 59.34-9.43 60.69-11.16 60.69-15.09L60.69-15.09 60.69-36.41ZM83.06 0L73.17 0 73.17-36.41 83.06-36.41 83.06 0ZM102.14-28.86L102.14-28.86Q98.63-28.86 96.66-25.99 94.69-23.11 94.69-18.05L94.69-18.05Q94.69-7.55 102.69-7.55L102.69-7.55Q105.1-7.55 107.37-8.22 109.64-8.89 111.93-9.84L111.93-9.84 111.93-1.52Q107.37 0.5 101.62 0.5L101.62 0.5Q93.38 0.5 88.98-4.28 84.58-9.06 84.58-18.1L84.58-18.1Q84.58-23.76 86.71-28.04 88.84-32.32 92.84-34.63 96.84-36.93 102.24-36.93L102.24-36.93Q108.14-36.93 113.52-34.37L113.52-34.37 110.51-26.62Q108.49-27.57 106.47-28.21 104.46-28.86 102.14-28.86ZM133.85-20.1L145.13 0 134.02 0 126.82-13.92 123.91-12.18 123.91 0 114.02 0 114.02-36.41 123.91-36.41 123.91-20.59Q124.66-22.06 126.92-25.25L126.92-25.25 134.57-36.41 145.33-36.41 133.85-20.1Z" transform="translate(-2.5900001525878906, 36.97999954223633)"></path></g><g fill="white" data-gra-ignore-fill="true"><path d="M38-18.25L38-18.25Q38-5.88 30.13-1.57L30.13-1.57 39.02 8.67 26.77 8.67 20.35 0.57 20.32 0.55 20.32 0.52 20.3 0.5Q11.73 0.5 7.16-4.31 2.59-9.11 2.59-18.3L2.59-18.3Q2.59-27.39 7.13-32.19 11.68-36.98 20.35-36.98L20.35-36.98Q29.04-36.98 33.52-32.22 38-27.47 38-18.25ZM12.95-18.25L12.95-18.25Q12.95-7.69 20.3-7.69L20.3-7.69Q24.03-7.69 25.84-10.26 27.64-12.82 27.64-18.25L27.64-18.25Q27.64-23.71 25.81-26.31 23.98-28.91 20.35-28.91L20.35-28.91Q12.95-28.91 12.95-18.25ZM60.69-36.41L70.53-36.41 70.53-14.49Q70.53-7.35 66.48-3.42 62.44 0.5 54.82 0.5L54.82 0.5Q47.37 0.5 43.37-3.31 39.38-7.12 39.38-14.27L39.38-14.27 39.38-36.41 49.26-36.41 49.26-15.04Q49.26-11.18 50.71-9.44 52.15-7.69 54.96-7.69L54.96-7.69Q57.98-7.69 59.34-9.43 60.69-11.16 60.69-15.09L60.69-15.09 60.69-36.41ZM83.06 0L73.17 0 73.17-36.41 83.06-36.41 83.06 0ZM102.14-28.86L102.14-28.86Q98.63-28.86 96.66-25.99 94.69-23.11 94.69-18.05L94.69-18.05Q94.69-7.55 102.69-7.55L102.69-7.55Q105.1-7.55 107.37-8.22 109.64-8.89 111.93-9.84L111.93-9.84 111.93-1.52Q107.37 0.5 101.62 0.5L101.62 0.5Q93.38 0.5 88.98-4.28 84.58-9.06 84.58-18.1L84.58-18.1Q84.58-23.76 86.71-28.04 88.84-32.32 92.84-34.63 96.84-36.93 102.24-36.93L102.24-36.93Q108.14-36.93 113.52-34.37L113.52-34.37 110.51-26.62Q108.49-27.57 106.47-28.21 104.46-28.86 102.14-28.86ZM133.85-20.1L145.13 0 134.02 0 126.82-13.92 123.91-12.18 123.91 0 114.02 0 114.02-36.41 123.91-36.41 123.91-20.59Q124.66-22.06 126.92-25.25L126.92-25.25 134.57-36.41 145.33-36.41 133.85-20.1Z" transform="translate(-2.5900001525878906, 36.97999954223633)"></path></g></g></mask></defs></g></g></g> <g data-gra="path-slogan" fill-rule="" class="tp-slogan" fill="#fffff" transform="matrix(1,0,0,1,48.48120307922363,52.650001525878906)" opacity="1"><!----> <!----> <g transform="scale(1, 1)"><g transform="scale(1.7599999999999998)"><path d="M6.70-9.70L6.70-9.70Q8.06-9.70 8.11-9.56L8.11-9.56Q8.11-9.56 8.06-9.47L8.06-9.47Q7.88-9.19 7.88-9L7.88-9Q7.83-8.48 7.83-7.64L7.83-7.64L9.23-7.64Q9.98-7.64 10.55-7.73L10.55-7.73Q10.27-5.91 10.27-4.17L10.27-4.17Q11.11-4.17 11.44-4.27L11.44-4.27L11.44-3.19Q11.06-3.28 10.17-3.28L10.17-3.28L8.39-3.28Q9.05-0.61 11.53 0.05L11.53 0.05Q11.02 0.38 10.45 1.13L10.45 1.13Q8.02-0.38 7.55-3.38L7.55-3.38Q6.98-0.33 4.50 1.13L4.50 1.13Q4.03 0.56 3.38 0.33L3.38 0.33Q5.81-0.28 6.56-3.28L6.56-3.28L5.86-3.28Q4.78-3.28 4.27-3.19L4.27-3.19L4.27-4.27Q4.97-4.17 5.86-4.17L5.86-4.17L6.66-4.17Q6.75-5.16 6.84-6.75L6.84-6.75L6.47-6.75Q5.44-6.75 5.02-6.66L5.02-6.66L5.02-7.64Q5.06-7.64 5.20-7.64L5.20-7.64Q5.86-7.55 6.47-7.55L6.47-7.55L6.84-7.55Q6.84-9.19 6.70-9.70ZM2.20-9.61L2.20-9.61Q3.56-9.61 3.56-9.52L3.56-9.52Q3.56-9.52 3.52-9.42L3.52-9.42Q3.28-9.05 3.28-8.16L3.28-8.16L3.28-0.42Q3.28 0.94 3.38 1.17L3.38 1.17L2.20 1.17Q2.34 0.70 2.30-0.42L2.30-0.42L2.30-8.06Q2.30-9.23 2.20-9.61ZM3.38-6.94L4.27-7.36Q4.88-6.38 5.25-5.39L5.25-5.39L4.22-4.92Q3.98-6.09 3.38-6.94L3.38-6.94ZM0.75-7.17L0.75-7.17Q0.84-7.17 1.31-7.13L1.31-7.13Q1.88-7.08 1.92-7.03L1.92-7.03Q1.92-7.03 1.88-6.89L1.88-6.89Q1.64-5.77 1.45-3.66L1.45-3.66Q0.80-3.75 0.33-3.75L0.33-3.75Q0.75-4.88 0.75-7.17ZM9.38-6.75L9.38-6.75L7.78-6.75Q7.73-5.67 7.64-4.41L7.64-4.41Q7.64-4.55 7.59-4.17L7.59-4.17L9.28-4.17Q9.28-4.73 9.33-5.44L9.33-5.44Q9.33-6.19 9.38-6.75ZM24.47-7.03L24.47-7.03L24.47-6.38Q24.47-5.25 24.56-4.55L24.56-4.55Q24.05-4.59 22.59-4.64L22.59-4.64L18.70-4.64Q17.67-4.59 16.88-4.55L16.88-4.55L16.88-5.44Q17.11-5.39 18.66-5.39L18.66-5.39L23.44-5.39L23.44-6.38L18.94-6.38Q17.67-6.38 17.20-6.33L17.20-6.33L17.20-7.17Q17.34-7.17 17.95-7.17L17.95-7.17Q18.70-7.13 18.94-7.13L18.94-7.13L23.44-7.13L23.44-8.20L18.80-8.20Q18.42-8.20 17.48-8.16L17.48-8.16Q17.02-8.16 16.92-8.16L16.92-8.16L16.92-9.05Q17.77-8.95 18.80-8.95L18.80-8.95L22.27-8.95Q23.25-8.95 24.14-9.05L24.14-9.05Q24.47-9.05 24.56-9.05L24.56-9.05Q24.56-8.91 24.52-8.34L24.52-8.34Q24.47-7.45 24.47-7.03ZM22.55-4.31L22.55-4.31Q23.48-4.27 23.72-4.08L23.72-4.08Q23.72-4.03 23.67-3.94L23.67-3.94Q23.53-3.66 23.53-3.33L23.53-3.33Q24-3.33 24.75-3.38L24.75-3.38Q26.06-3.38 26.34-3.42L26.34-3.42L26.34-2.48Q26.20-2.48 25.69-2.48L25.69-2.48Q24.98-2.53 24.75-2.53L24.75-2.53L23.53-2.53L23.53 0.05Q23.72 0.98 21.47 1.03L21.47 1.03Q21.42 0.47 21.05 0L21.05 0Q22.83 0.09 22.55-0.42L22.55-0.42L22.55-2.58L17.53-2.58Q15.98-2.58 15.66-2.48L15.66-2.48L15.66-3.42Q16.27-3.33 17.53-3.33L17.53-3.33L22.59-3.33Q22.59-3.84 22.55-4.31ZM17.95-1.78L18.80-2.25Q19.08-1.92 19.92-0.75L19.92-0.75L18.94-0.33Q18.80-0.70 17.95-1.78L17.95-1.78Z" transform="translate(-0.328125, 9.703125)"></path></g></g></g></g><defs v-gra="od"></defs></svg>