<svg class="icon" style="width: 1em;height: 1em;vertical-align: middle;fill: currentColor;overflow: hidden;" viewBox="0 0 1024 1024" version="1.1" xmlns="http://www.w3.org/2000/svg"><path d="M221.467345 252.510275h581.273652v581.273652c0 34.168057-27.917803 62.294201-62.294201 62.294201H283.761546c-34.168057 0-62.294201-27.917803-62.294201-62.294201v-581.273652z" fill="#ea2027" /><path d="M449.809969 356.264496c0-11.4588-9.375381-20.834181-20.834181-20.834181s-20.834181 9.375381-20.834181 20.834181v435.851069c0 11.4588 9.375381 20.834181 20.834181 20.834181s20.834181-9.375381 20.834181-20.834181V356.264496zM615.858393 356.264496c0-11.4588-9.375381-20.834181-20.834181-20.834181s-20.834181 9.375381-20.834181 20.834181v435.851069c0 11.4588 9.375381 20.834181 20.834181 20.834181s20.834181-9.375381 20.834181-20.834181V356.264496z" fill="#FB8C00" /><path d="M194.591251 211.258596c-10.208749 0-18.750763 9.375381-18.750763 20.834181s8.333672 20.834181 18.750763 20.834181H829.200407c10.208749 0 18.750763-9.375381 18.750763-20.834181s-8.333672-20.834181-18.750763-20.834181H194.591251z" fill="#ea2027" /><path d="M449.809969 176.04883c-11.4588 0-20.834181 9.375381-20.834181 20.834181s9.375381 20.834181 20.834181 20.834181h124.588403c11.4588 0 20.834181-9.375381 20.834181-20.834181s-9.375381-20.834181-20.834181-20.834181h-124.588403z" fill="#ea2027" /></svg>